<svg width="55" height="44" viewBox="0 0 55 44" fill="none" xmlns="http://www.w3.org/2000/svg">
<path d="M18.0144 0.0391769C18.0144 0.127843 18.164 0.545843 18.3544 0.963843C18.5992 1.52118 18.6944 1.95184 18.6944 2.61051C18.6944 3.67451 18.4904 4.10518 17.348 5.58718C16.2192 7.04384 15.92 7.94318 16.0016 9.65318C16.056 10.7172 16.124 11.0085 16.4912 11.7052C17.2392 13.0985 18.912 14.4412 20.3672 14.7705C20.884 14.8972 20.8704 14.5172 20.34 14.2765C19.3064 13.7698 18.504 12.4272 18.504 11.1605C18.504 10.0965 18.8304 9.43784 20 8.09518C21.2784 6.61318 21.7272 5.68851 21.7952 4.32051C21.8632 2.95251 21.6728 2.28118 21.0064 1.62251C20.4352 1.03984 18.0144 -0.239491 18.0144 0.0391769Z" fill="white"/>
<path d="M38.4824 0.0138502C38.4416 0.064517 38.564 0.43185 38.7544 0.824517C39.5024 2.39518 39.312 3.63652 38.1288 5.14385C36.2656 7.49985 35.912 9.70385 37.0408 11.8572C37.7344 13.1745 39.4072 14.4412 40.9032 14.7705C41.42 14.8972 41.4064 14.5172 40.8624 14.2639C39.788 13.7445 38.9584 12.3892 38.9584 11.1605C38.9584 10.1979 39.3936 9.31118 40.4952 8.04452C41.0392 7.42385 41.624 6.60052 41.7872 6.24585C42.6712 4.34585 42.4264 2.21785 41.216 1.33118C40.5904 0.862516 38.564 -0.112817 38.4824 0.0138502Z" fill="white"/>
<path d="M28.2824 0.229178C28.8672 1.52118 28.9352 1.78718 28.9488 2.61051C28.9488 3.63651 28.772 4.00385 27.616 5.51118C26.6776 6.72718 26.2968 7.65185 26.2152 8.94385C26.0928 10.7172 26.6504 12.0978 27.9832 13.3265C28.772 14.0485 30.5128 14.9098 30.8936 14.7705C31.1112 14.6945 31.084 14.6438 30.6624 14.3525C29.2344 13.3138 28.7584 12.5285 28.7584 11.1478C28.7584 10.0332 29.0712 9.32385 30.0232 8.31051C31.5056 6.72718 32.0224 5.58718 32.0224 3.94051C32.0224 2.73718 31.8184 2.17985 31.0976 1.49584C30.6352 1.05251 28.704 0.0138454 28.3368 0.0138454C28.2416 0.0138454 28.228 0.102511 28.2824 0.229178Z" fill="white"/>
<path d="M23.9848 16.9745C23.4136 17.0252 23.0464 17.1645 22.5568 17.4812C20.1088 19.0898 16.056 22.9278 14.5464 25.0685C14.3424 25.3598 14.1384 25.5878 14.1248 25.5625C13.9752 25.4232 16.0968 20.6225 16.94 19.1785C17.2664 18.6212 17.4296 18.2412 17.3344 18.1905C17.0896 18.0512 13.9208 19.1405 11.7584 20.1032C5.7744 22.7885 1.7352 26.5758 0.3888 30.7305C-0.1008 32.2632 -0.128 34.0998 0.3072 35.4425C1.572 39.2552 6.1144 41.5858 14.5872 42.7638C20.1224 43.5238 31.1112 43.6758 37.6664 43.0678C41.4064 42.7258 45.7584 41.8392 48.1656 40.9398C50.2056 40.1798 52.2592 38.8752 53.2112 37.7352C54.476 36.2025 55.02 34.3152 54.7616 32.3898C54.2312 28.4885 51.4432 24.9545 46.4384 21.8638C45.1192 21.0658 42.2496 19.6472 41.9096 19.6472C41.6104 19.6472 38.4688 22.7252 37.272 24.1818C36.6736 24.8912 36.1704 25.4612 36.1568 25.4358C36.0616 25.3598 37.5848 21.8258 38.3328 20.3438C38.7544 19.5205 39.0944 18.7732 39.0944 18.6972C39.0944 18.5198 36.8096 17.8992 34.9056 17.5572L33.7632 17.3418L33.2056 17.7092C31.492 18.8112 27.8608 22.2058 26.188 24.2832C25.576 25.0305 25.0864 25.6005 25.0864 25.5625C25.0864 25.3852 26.052 23.0165 26.7048 21.6105C27.4528 20.0018 28.2688 18.5452 28.908 17.6585C29.1256 17.3672 29.3024 17.0758 29.3024 16.9998C29.3024 16.8478 25.3856 16.8352 23.9848 16.9745Z" fill="white"/>
</svg>
